# xmcd
#
# Track frame offsets:
#	183
#	11133
#	20433
#	35433
#	51933
#	63558
#	87408
#	103833
#	113208
#
# Disc length: 1729 seconds
#
# Revision: 1
# Processed by: cddbd v1.4PL0 Copyright (c) Steve Scherf et al.
# Submitted via: audiograbber 1.80.04
#
DISCID=7706bf09
DTITLE=Fabrizio De Andre - Vol.2
DYEAR=1900
DGENRE=
TTITLE0=Nuvole barocche
TTITLE1=E fu la notte
TTITLE2=Delitto di paese assasinat
TTITLE3=Valzer Campestre
TTITLE4=Per i tuoi larghi occhi
TTITLE5=Carlo Martello
TTITLE6=Il fannullone
TTITLE7=Geordie
TTITLE8=La canzone dell´amore perduto
EXTD=
EXTT0=
EXTT1=
EXTT2=
EXTT3=
EXTT4=
EXTT5=
EXTT6=
EXTT7=
EXTT8=
PLAYORDER=
